<!-- icon666.com - MILLIONS vector ICONS FREE --><svg xmlns="http://www.w3.org/2000/svg" id="Icons" viewBox="0 0 60 60"><path d="M7.459,26.873A7.309,7.309,0,0,0,12.594,29h7.368a1.5,1.5,0,0,1,1.467,1.2l5.59,27.377A3,3,0,0,0,29.959,60a3.088,3.088,0,0,0,.37-.023l5.021-.628a3.01,3.01,0,0,0,2.381-1.793l8.435-20.345a8.918,8.918,0,0,1,1.94-2.9l7.779-7.78A3.772,3.772,0,0,0,57,23.839V21.744a2.568,2.568,0,0,0-2.854-2.52l-4.955.619a.794.794,0,0,1-.838-.465l-4.111-8.907a9.09,9.09,0,0,0-4.8-4.608L26.865.687A9.061,9.061,0,0,0,23.4,0H18.354a10.42,10.42,0,0,0-6.583,2.35l-6.107,5A7.233,7.233,0,0,0,3,12.968v6.438a7.219,7.219,0,0,0,2.127,5.136ZM5,12.968A5.239,5.239,0,0,1,6.93,8.9l6.107-5A8.418,8.418,0,0,1,18.354,2H23.4a7.078,7.078,0,0,1,2.709.536L38.676,7.713a7.09,7.09,0,0,1,3.75,3.6l4.11,8.907a2.8,2.8,0,0,0,2.9,1.612l4.955-.62a.545.545,0,0,1,.606.536v2.095a1.794,1.794,0,0,1-.528,1.275l-7.78,7.78a10.9,10.9,0,0,0-2.374,3.551L35.891,56.773a1,1,0,0,1-.788.591l-5.022.628a1.006,1.006,0,0,1-1.1-.807L23.388,29.8A3.509,3.509,0,0,0,19.962,27H12.594a5.3,5.3,0,0,1-3.721-1.542L6.541,23.127A5.233,5.233,0,0,1,5,19.406Z"></path><path d="M54.214,40.533l-1.883-.461a2.355,2.355,0,0,0-2.6,1.063l-2.383,3.949a2.286,2.286,0,0,0-.3,1.687l.8,3.979a2.379,2.379,0,0,0,1.585,1.772l1.1.356a2.387,2.387,0,0,0,3-1.554L55.9,43.5A2.382,2.382,0,0,0,54.214,40.533Zm-.23,2.387-2.367,7.826a.364.364,0,0,1-.465.233l-1.093-.355a.376.376,0,0,1-.252-.269l-.8-3.995a.3.3,0,0,1,.05-.236l2.385-3.952a.367.367,0,0,1,.406-.158l1.883.461A.355.355,0,0,1,53.984,42.92Z"></path></svg>